<?xml version="1.0" encoding="UTF-8"?>
<svg width="192px" height="61px" viewBox="0 0 192 61" version="1.1" xmlns="http://www.w3.org/2000/svg" xmlns:xlink="http://www.w3.org/1999/xlink" xmlns:sketch="http://www.bohemiancoding.com/sketch/ns">
    <!-- Generator: Sketch 3.5.1 (25234) - http://www.bohemiancoding.com/sketch -->
    <title>Slice 1</title>
    <desc>Created with Sketch.</desc>
    <defs></defs>
    <g id="Page-1" stroke="none" stroke-width="1" fill="none" fill-rule="evenodd" sketch:type="MSPage">
        <g id="Group" sketch:type="MSLayerGroup" transform="translate(1.000000, 0.000000)">
            <path d="M36.6,60 L34.296,60 L81.312,8.808 L83.04,8.808 L83.04,60.144 L81.456,60.144 L81.456,11.688 L36.6,60 Z M108.456,60.648 C105.863987,60.3119983 103.356012,59.448007 100.932,58.056 C98.5079879,56.663993 96.5520074,54.8880108 95.064,52.728 C93.2879911,50.135987 92.1360026,47.4720137 91.608,44.736 C91.0799974,41.9999863 91.0559976,39.3480128 91.536,36.78 C92.0160024,34.2119872 92.951993,31.824011 94.344,29.616 C95.736007,27.407989 97.4759896,25.5480076 99.564,24.036 C101.65201,22.5239924 104.051986,21.468003 106.764,20.868 C109.476014,20.267997 112.391984,20.3039966 115.512,20.976 C118.920017,21.7440038 121.739989,23.1479898 123.972,25.188 C126.204011,27.2280102 128.183991,29.6879856 129.912,32.568 L129.912,20.976 L131.568,20.976 L131.568,60 L129.912,60 L129.912,48.768 C127.655989,52.8960206 124.716018,56.0519891 121.092,58.236 C117.467982,60.4200109 113.256024,61.2240029 108.456,60.648 L108.456,60.648 Z M107.952,58.632 C109.632008,58.9680017 111.395991,59.0520008 113.244,58.884 C115.092009,58.7159992 116.783992,58.2480038 118.32,57.48 C120.624012,56.3759945 122.579992,54.9840084 124.188,53.304 C125.796008,51.6239916 127.031996,49.7760101 127.896,47.76 C128.760004,45.7439899 129.251999,43.6560108 129.372,41.496 C129.492001,39.3359892 129.228003,37.2240103 128.58,35.16 C127.931997,33.0959897 126.888007,31.1520091 125.448,29.328 C124.007993,27.5039909 122.184011,25.9440065 119.976,24.648 C118.247991,23.639995 116.34001,22.9560018 114.252,22.596 C112.16399,22.2359982 110.11201,22.2479981 108.096,22.632 C105.503987,23.1600026 103.080011,24.1439928 100.824,25.584 C98.5679887,27.0240072 96.8160062,28.8959885 95.568,31.2 C94.4159942,33.4560113 93.6120023,35.7719881 93.156,38.148 C92.6999977,40.5240119 92.8319964,42.9599875 93.552,45.456 C94.560005,48.864017 96.3479872,51.7439882 98.916,54.096 C101.484013,56.4480118 104.495983,57.9599966 107.952,58.632 L107.952,58.632 Z M141.72,22.2 L141.72,33.216 L141.936,33.216 C142.800004,31.6319921 143.867994,30.144007 145.14,28.752 C146.412006,27.359993 147.827992,26.1360053 149.388,25.08 C150.948008,24.0239947 152.615991,23.2200028 154.392,22.668 C156.168009,22.1159972 158.01599,21.8879995 159.936,21.984 L159.936,23.856 C157.823989,23.9040002 155.80801,24.2759965 153.888,24.972 C151.96799,25.6680035 150.228008,26.6279939 148.668,27.852 C147.107992,29.0760061 145.764006,30.5399915 144.636,32.244 C143.507994,33.9480085 142.704002,35.8319897 142.224,37.896 C142.224,37.9920005 142.176,38.2679977 142.08,38.724 C141.984,39.1800023 141.936,39.503999 141.936,39.696 C141.936,39.9360012 141.9,40.2959976 141.828,40.776 C141.756,41.2560024 141.72,41.5439995 141.72,41.64 L141.72,60 L139.92,60 L139.92,22.2 L141.72,22.2 Z" id="Aark" fill="#FFFFFF" sketch:type="MSShapeGroup"></path>
            <path d="M172.88,40.488 C172.784,40.3919995 172.712,40.2720007 172.664,40.128 C172.471999,39.935999 172.424,39.7920005 172.52,39.696 L187.928,21.84 L190.376,21.84 L174.824,39.984 L189.872,60 L187.568,60 L172.88,40.488 Z M166.76,0.024 L166.76,60 L165.104,60 L165.104,0.024 L166.76,0.024 Z" id="Type-something" fill="#FFFFFF" sketch:type="MSShapeGroup"></path>
            <path d="M69.5,39 L0.5,39" id="Line" stroke="#FF0000" stroke-width="2" stroke-linecap="square" sketch:type="MSShapeGroup"></path>
        </g>
    </g>
</svg>